PathFileType	4	(X/Y/Z)	C:\Users\ebm\Documents\Erivelton\Erivelton2\wc3.trc
DataRate	CameraRate	NumFrames	NumMarkers	Units	OrigDataRate	OrigDataStartFrame	OrigNumFrames
150.00	150.00	      13	28	mm	150.00	1090	      1245
Frame#	Time	IJ			PX			C7			T8			RAC			RAS			RPS			RAI			RPI			RLE			RME			RRS			RUS			R3M			R5M			LAC			LAS			LPS			LAI			LPI			LLE			LME			LRS			LUS			L3M			L5M			RW			LW			V_mid_elbow_r			V_mid_elbow_l			V_mid_wrist_r			V_mid_wrist_l			V_mid_trunk_low			V_mid_trunk_upp			
		X1	Y1	Z1	X2	Y2	Z2	X3	Y3	Z3	X4	Y4	Z4	X5	Y5	Z5	X6	Y6	Z6	X7	Y7	Z7	X8	Y8	Z8	X9	Y9	Z9	X10	Y10	Z10	X11	Y11	Z11	X12	Y12	Z12	X13	Y13	Z13	X14	Y14	Z14	X15	Y15	Z15	X16	Y16	Z16	X17	Y17	Z17	X18	Y18	Z18	X19	Y19	Z19	X20	Y20	Z20	X21	Y21	Z21	X22	Y22	Z22	X23	Y23	Z23	X24	Y24	Z24	X25	Y25	Z25	X26	Y26	Z26	X27	Y27	Z27	X28	Y28	Z28	

1090	7.260	4122.13281	1024.73376	87.26182	4125.96240	855.68469	97.96545	3991.34497	1125.47571	81.79848	3911.34619	981.00153	83.95695	4048.95068	1055.06653	292.14267	4045.52295	868.19305	358.37424	3996.26074	880.49426	361.43384	4034.97949	795.81598	389.80566	3983.19653	806.21417	391.30255	3988.02759	738.04144	409.43408	3965.48413	714.55597	337.27744	4155.67627	546.05457	422.70102	4177.35254	472.85364	436.04388							4044.99829	1063.49011	-103.60271	4021.31519	914.64349	-195.57733	3974.47949	913.86987	-182.02008	4019.52930	842.22614	-231.57353	3965.99756	838.44403	-217.70815	4001.55176	757.57324	-264.71759	3957.09961	732.77026	-205.54276	4153.50342	542.64172	-248.49751	4172.17188	481.64682	-239.55394				4211.26465	477.92804	-239.21054	4012.38745	292.50610	397.20520				
1091	7.267	4129.41016	1025.05286	87.58476	4134.04395	855.89026	98.18309	3998.47168	1125.55603	81.86928	3918.63818	980.78967	83.99342	4056.52783	1054.69812	292.25394	4056.90088	867.55884	357.88525	4007.59033	878.73401	360.94717	4047.95386	794.44098	389.29276	3996.49512	804.09540	390.81412	4002.93481	736.18555	408.60449	3980.46753	712.56927	336.75381	4168.77344	542.29205	423.22852	4189.36377	468.85974	436.50986							4053.25122	1063.02417	-103.42559	4032.87988	913.27832	-194.52696	3985.65771	911.72021	-181.78191	4032.59790	840.63678	-230.09943	3979.09375	835.80902	-217.04724	4016.44336	755.57452	-263.19351	3970.57983	731.15222	-204.68330	4166.84326	539.04395	-248.28851	4186.40234	477.64600	-239.32613				4223.43848	473.97913	-238.63803	4020.12354	292.26196	397.58423				
1092	7.273	4136.84277	1025.50916	87.78712	4142.02197	856.05273	98.48712	4005.49341	1125.61951	81.90831	3926.38916	980.29895	84.02722	4064.09497	1054.27881	292.38867	4068.42236	866.99481	357.28235	4018.80151	877.09064	360.49292	4061.20264	793.38715	388.48169	4009.63599	802.04785	390.27429	4017.77173	734.40326	407.70697	3995.56055	710.76575	336.01355	4181.58154	538.52295	423.72302	4201.15332	465.04581	436.95309							4061.29517	1062.39661	-103.37343	4044.01855	911.85577	-193.40434	3996.75488	909.68250	-181.56674	4045.89771	839.10590	-228.57997	3992.21948	833.42358	-216.43826	4031.16187	753.87207	-261.45572							4200.95752	473.70840	-239.14439				4235.27832	470.28485	-238.19633	4027.92163	292.06436	397.86807				
1093	7.280	4143.97266	1025.72424	88.17185	4150.15088	856.46075	98.91902	4012.75171	1125.52747	81.81636	3933.96655	980.00323	84.05437	4071.72803	1053.98413	292.45880	4079.93433	866.56165	356.63660	4030.11230	875.87604	360.78540	4074.11865	791.68170	387.51126	4022.70947	800.11902	389.66763	4032.49536	732.68616	406.67343	4010.61060	709.14832	335.10403	4193.96582	534.87793	424.22778	4212.40234	461.36349	437.29550							4069.48511	1061.80554	-103.03453	4055.33862	910.67120	-192.24190	4007.90454	907.75604	-181.29100	4059.07959	837.76172	-227.05148	4005.18970	831.22412	-215.75180	4045.83667	752.19702	-259.75391							4215.66309	469.90945	-239.00819				4247.03613	466.71317	-237.72044	4035.67969	291.90149	398.38211				
1094	7.287	4151.31445	1026.03027	88.50762	4158.05273	856.59265	99.22710	4019.77222	1125.43018	81.91503	3941.45435	979.50140	84.04602	4079.14917	1053.60059	292.62073	4091.26221	866.19458	356.05258	4041.43872	874.44556	360.41031	4087.12329	790.81061	386.69504	4035.73877	798.38739	389.08768	4047.10938	731.25543	405.49588	4025.46484	707.71967	334.07242	4206.31396	531.36005	424.76691	4224.12646	457.86102	437.92441							4077.54858	1061.59644	-102.99908	4066.65869	909.45007	-191.08624	4019.11426	906.00012	-181.04349	4072.00659	836.49817	-225.45346	4018.09351	829.21851	-214.94189	4060.47437	750.91595	-257.85172							4230.34326	466.32440	-238.91696				4258.63379	463.42606	-237.24133	4043.44531	291.78278	398.69879				
1095	7.293	4158.87158	1026.45190	88.76897	4166.24414	856.88287	99.73775	4026.85010	1125.35693	81.96722	3949.28418	979.06073	84.00808	4086.73291	1053.40271	292.75220	4102.59619	865.83594	355.28192	4052.73828	873.22272	360.14279	4099.81104	789.94482	386.00128	4048.73096	796.79095	388.51990	4061.41772	730.01093	404.18054	4039.96997	706.48285	332.96613	4218.32666	528.19556	425.30630	4235.53174	454.42215	438.46301							4085.71289	1061.22705	-102.74218	4077.93481	908.59326	-190.09108	4030.31055	904.43860	-180.64050	4084.84521	835.44849	-223.77071	4030.89087	827.46814	-214.18144	4074.78979	749.87677	-255.88972							4244.82324	463.02866	-238.87013				4270.50928	460.52469	-236.86230	4051.28857	291.62775	399.07697				
1096	7.300				4174.15479	856.99677	100.12376	4034.02271	1125.12659	82.01085	3956.82471	978.53931	84.06339	4094.26929	1053.17212	292.99026	4113.92480	865.59387	354.59586	4063.98706	872.09467	359.97775	4115.26855	792.11499	381.73422	4062.02563	795.89252	388.00391	4075.61304	729.06201	403.16791	4053.97437	705.44055	331.83246	4230.13135	525.37378	425.94626	4246.56348	451.09402	439.02103							4093.69653	1060.74170	-102.32450	4089.05688	907.92969	-189.21773	4041.37378	903.13354	-180.16492	4097.47754	834.43524	-222.09689	4043.23413	825.99695	-213.25851	4088.69995	748.79254	-253.94731	4042.91309	721.95398	-197.70198	4231.04932	526.18182	-247.72560	4258.92871	460.09756	-238.86717				4281.48633	457.13538	-236.57254	4059.16577	291.40744	399.33530				
1097	7.307				4182.23584	857.20996	100.47015	4041.38525	1124.90088	82.16120	3964.50757	978.10504	84.00224	4101.73242	1052.93042	293.15063	4125.02441	865.44781	353.76477	4075.18872	871.08740	359.88760	4128.05908	791.87073	380.50098	4074.76245	794.68890	387.55832	4089.30640	728.33026	401.95502	4067.32422	704.59570	330.71872	4241.73047	523.13135	426.62744	4257.66895	448.92197	439.97455							4101.79688	1060.61511	-102.03185	4100.09766	907.21588	-188.16849	4052.35889	901.93079	-179.69040	4109.64258	833.67780	-220.39558	4055.52832	824.66718	-212.26529	4102.15234	748.08508	-251.95586	4055.64966	721.01318	-196.16357	4243.76416	524.22760	-247.72496	4272.48340	457.60632	-238.90746				4292.55615	455.07199	-236.51718	4067.15088	291.32431	399.71204				
1098	7.313				4190.32031	857.45850	101.06676	4048.70801	1124.75085	82.36479	3972.29858	977.75421	84.13568	4109.31738	1052.72058	293.32996	4136.15869	865.36890	352.97592	4086.24634	870.38019	359.88174	4140.44824	791.73114	379.24286	4087.32593	793.64166	387.20377	4102.68848	727.78412	400.91443	4079.86743	703.95093	329.67221	4253.15967	521.30475	427.30069	4268.45703	447.31351	441.07443							4109.77734	1060.49829	-101.77106	4110.90088	906.64838	-187.17656	4063.05029	900.96295	-179.28957	4121.53955	832.99707	-218.90381	4067.51294	823.51117	-211.26590	4115.27148	747.44806	-250.07722	4068.12646	720.25616	-194.82367	4255.65576	523.02100	-247.46788	4285.31348	455.63046	-238.99051				4303.55957	453.32587	-236.40889	4075.09082	291.10910	400.10144				
1099	7.320				4198.40039	857.52295	101.28566	4056.17090	1124.49634	82.42924	3980.25659	977.39148	84.18955	4116.98535	1052.57690	293.50208	4147.13818	865.62323	351.98370	4097.15234	869.77209	359.89447	4152.60498	791.70197	377.86200	4099.59326	792.87726	386.70477	4115.44775	727.48334	399.93979	4091.63696	703.51715	328.75262	4264.06396	519.99402	427.95926	4279.35889	446.50116	442.46176							4117.70410	1060.43506	-101.42697	4121.31104	906.15601	-186.20343	4073.57495	900.08710	-178.96797	4133.10889	832.49103	-217.31711	4079.07813	822.50623	-210.29892	4127.74170	746.90009	-248.10382	4080.34863	719.71185	-193.28979	4267.56982	522.13977	-247.57954	4297.24316	454.24527	-239.11571				4313.60693	451.69666	-236.30617	4083.14307	291.13950	400.52509				
1100	7.327				4206.50879	857.65240	101.72311	4063.60889	1124.37415	82.67911	3988.06348	977.06128	84.32375	4124.65234	1052.57190	293.68451	4157.79297	865.80493	351.07556	4107.82031	869.42047	359.99512	4164.31934	791.77802	376.50934	4111.47656	792.46869	386.33881	4127.73340	727.44366	399.05988	4103.19580	703.32440	328.03693	4274.88281	519.17114	428.53766	4289.45654	445.67743	443.34183							4125.68652	1060.38110	-101.15819	4131.48877	905.82477	-185.28284	4083.53149	899.41693	-178.59398	4144.19434	832.12457	-215.96626	4090.10278	821.66016	-209.35739	4139.69092	746.47839	-246.36220	4092.03589	719.30518	-191.83653	4279.10645	521.89764	-247.20232	4308.09863	453.52600	-239.28253				4308.26904	453.60779	-239.23212	4091.10229	291.06567	400.94397				
1101	7.333				4214.63184	857.72028	102.07070	4071.39600	1124.28601	82.87268	3995.93286	976.78308	84.56255	4132.71240	1052.60071	293.79895	4168.27832	866.02802	350.18533	4118.30322	869.26636	360.08908	4175.59912	791.93140	375.26749	4122.98145	792.28339	386.05518	4139.31201	727.48022	398.24417	4114.43945	703.36249	327.48535	4285.39795	518.88287	429.00504	4299.43262	445.38901	444.14954							4133.77783	1060.59814	-100.99516	4141.36426	905.51923	-184.49504	4093.46875	898.78412	-178.14719	4154.99463	831.71533	-214.53839	4100.86377	820.88037	-208.37732	4151.09033	746.24646	-244.73813	4103.26709	718.90100	-190.24397	4290.57324	521.84094	-246.96045	4317.70361	453.54807	-239.49037							4099.10547	290.92697	401.28448				
1102	7.340				4222.80127	857.67389	102.17899	4079.10693	1124.05798	82.87238	4004.04883	976.47998	84.70673	4140.77930	1052.79749	293.91052	4178.06006	866.22961	349.50079	4128.41162	869.25861	360.28491	4186.26563	792.21008	374.10474	4133.84570	792.25531	385.57990	4150.15479	727.64819	397.73312	4125.04980	703.60907	327.02591	4295.63379	518.98596	429.43094	4309.15723	445.49350	444.95300							4141.86377	1060.31409	-100.55464	4150.88281	905.33282	-183.69344	4103.07715	898.27191	-177.72290	4165.30371	831.46277	-213.32138	4111.24023	820.40143	-207.57278	4161.78809	745.88953	-243.28604	4114.05908	718.64978	-188.71794	4301.75586	521.74451	-246.70381	4326.15039	454.23813	-239.73206							4107.19434	290.81650	401.71811				
